<?xml version="1.0" standalone="no"?><!DOCTYPE svg PUBLIC "-//W3C//DTD SVG 1.1//EN" "http://www.w3.org/Graphics/SVG/1.1/DTD/svg11.dtd"><svg class="icon" width="200px" height="200.00px" viewBox="0 0 1024 1024" version="1.1" xmlns="http://www.w3.org/2000/svg"><path d="M969.083392 548.601856q0 14.856192-10.856448 25.71264t-25.71264 10.856448l-127.991808 0q0 97.708032-38.283264 165.70368l118.849536 119.420928q10.856448 10.856448 10.856448 25.71264t-10.856448 25.71264q-10.285056 10.856448-25.71264 10.856448t-25.71264-10.856448l-113.135616-112.564224q-2.85696 2.85696-8.57088 7.428096t-23.998464 16.284672-37.14048 20.855808-46.854144 16.570368-55.425024 7.428096l0-511.967232-73.138176 0 0 511.967232q-29.140992 0-57.996288-7.713792t-49.711104-18.855936-37.711872-22.284288-24.855552-18.57024l-8.57088-7.999488-104.564736 118.278144q-11.42784 11.999232-27.426816 11.999232-13.713408 0-24.569856-9.142272-10.856448-10.285056-11.713536-25.426944t8.856576-26.569728l115.421184-129.705984q-33.140736-65.138688-33.140736-156.561408l-127.991808 0q-14.856192 0-25.71264-10.856448t-10.856448-25.71264 10.856448-25.71264 25.71264-10.856448l127.991808 0 0-167.989248-98.850816-98.850816q-10.856448-10.856448-10.856448-25.71264t10.856448-25.71264 25.71264-10.856448 25.71264 10.856448l98.850816 98.850816 482.254848 0 98.850816-98.850816q10.856448-10.856448 25.71264-10.856448t25.71264 10.856448 10.856448 25.71264-10.856448 25.71264l-98.850816 98.850816 0 167.989248 127.991808 0q14.856192 0 25.71264 10.856448t10.856448 25.71264zm-274.26816-329.121792l-365.69088 0q0-75.995136 53.425152-129.420288t129.420288-53.425152 129.420288 53.425152 53.425152 129.420288z" /></svg>