<?xml version="1.0" standalone="no"?><!DOCTYPE svg PUBLIC "-//W3C//DTD SVG 1.1//EN" "http://www.w3.org/Graphics/SVG/1.1/DTD/svg11.dtd"><svg class="icon" width="200px" height="200.00px" viewBox="0 0 1024 1024" version="1.1" xmlns="http://www.w3.org/2000/svg"><path d="M167.39601 860.835873c-28.371164-0.033769-54.035684-11.541871-72.598458-30.16195-18.562774-18.61701-30.058596-44.310182-30.058596-72.67623L64.738955 265.663592c0-28.401864 11.495822-54.128805 30.094412-72.746838s44.297902-30.126134 72.669066-30.126134l688.50497 0c25.768897 0 49.323359 9.503445 67.394946 25.198915 18.281365 15.907295 30.867008 38.185694 34.382065 63.384609l0.035816 0.38681 0 0.211824L957.82023 771.688507l0 0.212848-0.035816 0.385786c-3.515057 25.164123-16.099676 47.441499-34.345226 63.316048-17.999956 15.69547-41.521672 25.198915-67.291592 25.232684l0 0.034792L167.39601 860.870666 167.39601 860.835873zM900.795469 265.663592c0-12.389168-4.990664-23.580045-13.111622-31.710212-8.085142-8.095375-19.300578-13.127995-31.676443-13.127995L167.50141 220.825384c-12.374842 0-23.555485 5.03262-31.676443 13.127995-8.086166 8.130168-13.112646 19.321044-13.112646 31.710212l0 118.67589 778.083148 0L900.795469 265.663592zM900.795469 442.374246 122.712321 442.374246l0 315.623447c0 12.389168 5.027503 23.581068 13.112646 31.710212 8.121981 8.095375 19.301602 13.127995 31.676443 13.127995l688.50497 0c12.375865 0 23.591301-5.03262 31.676443-13.127995 8.121981-8.129144 13.111622-19.321044 13.111622-31.710212L900.794445 442.374246zM167.50141 605.88732l196.700941 0 4.394077 0 0 4.399193 0 49.236378 0 4.399193-4.394077 0L167.50141 663.922085l-4.394077 0 0-4.399193 0-49.236378 0-4.399193L167.50141 605.88732zM290.444487 762.395864 167.50141 762.395864l-4.394077 0 0-4.399193 0-49.235354 0-4.400217 4.394077 0 122.942053 0 4.394077 0 0 4.400217 0 49.235354 0 4.399193L290.444487 762.395864z" /></svg>