<?xml version="1.0" standalone="no"?><!DOCTYPE svg PUBLIC "-//W3C//DTD SVG 1.1//EN" "http://www.w3.org/Graphics/SVG/1.1/DTD/svg11.dtd"><svg class="icon" width="200px" height="200.00px" viewBox="0 0 1024 1024" version="1.1" xmlns="http://www.w3.org/2000/svg"><path d="M1010.6 394.8c-44.3-189-193.2-337.7-382.3-381.5-2.9-0.7-5.7-1-8.4-1-19.3 0-35.9 15.7-35.9 36V439h391.5c23.2 0 40.3-21.6 35.1-44.2z"  /><path d="M950.5 512H512V73.5c0-20-16.2-36.1-35.9-36.1-1 0-1.9 0-2.9 0.1C228.5 57.3 36 262.2 36 512c0 262.9 213.1 476 476 476 249.8 0 454.7-192.5 474.4-437.2 1.7-20.9-14.9-38.8-35.9-38.8z"  /></svg>