<?xml version="1.0" standalone="no"?><!DOCTYPE svg PUBLIC "-//W3C//DTD SVG 1.1//EN" "http://www.w3.org/Graphics/SVG/1.1/DTD/svg11.dtd"><svg class="icon" width="200px" height="200.00px" viewBox="0 0 1024 1024" version="1.1" xmlns="http://www.w3.org/2000/svg"><path d="M277.333333 341.333333l469.333333 0c11.797333 0 21.333333-9.536 21.333333-21.333333 0-11.818667-9.536-21.333333-21.333333-21.333333l-469.333333 0c-11.797333 0-21.333333 9.514667-21.333333 21.333333C256 331.797333 265.536 341.333333 277.333333 341.333333zM277.333333 469.333333l469.333333 0c11.797333 0 21.333333-9.536 21.333333-21.333333 0-11.818667-9.536-21.333333-21.333333-21.333333l-469.333333 0c-11.797333 0-21.333333 9.514667-21.333333 21.333333C256 459.797333 265.536 469.333333 277.333333 469.333333zM277.333333 597.333333l469.333333 0c11.797333 0 21.333333-9.536 21.333333-21.333333 0-11.818667-9.536-21.333333-21.333333-21.333333l-469.333333 0c-11.797333 0-21.333333 9.514667-21.333333 21.333333C256 587.797333 265.536 597.333333 277.333333 597.333333zM277.333333 725.333333l469.333333 0c11.797333 0 21.333333-9.536 21.333333-21.333333 0-11.818667-9.536-21.333333-21.333333-21.333333l-469.333333 0c-11.797333 0-21.333333 9.514667-21.333333 21.333333C256 715.797333 265.536 725.333333 277.333333 725.333333zM347.456 78.378667 347.456 78.378667 347.328 78.357333ZM729.045333 78.357333 728.917333 78.378667 728.917333 78.378667ZM831.786667 42.666667l-639.573333 0c-35.392 0-64.213333 28.8-64.213333 64.213333l0 784.192c0 35.392 28.821333 64.213333 64.213333 64.213333l392.533333 0c16.810667 0.256 64.64 4.714667 86.058667 22.122667 3.242667 2.645333 7.189333 3.946667 11.114667 3.946667 5.12 0 10.197333-2.218667 13.674667-6.506667 6.144-7.552 5.013333-18.666667-2.538667-24.810667-34.837333-28.288-100.586667-29.909333-107.968-29.994667L192.213333 920.042667c-15.957333 0-28.949333-12.992-28.949333-28.949333L163.264 106.88c0-15.957333 12.992-28.928 28.949333-28.928l155.264 0-0.021333 0.448c1.792 0.192 32.597333 3.648 45.141333 32.192 2.474667 9.685333 14.912 47.936 58.133333 55.552l1.514667 0.277333 171.925333 0 1.514667-0.277333c43.178667-7.616 55.637333-45.866667 58.112-55.552 12.544-28.501333 43.264-31.978667 45.141333-32.192l-0.021333-0.448 102.912 0c15.957333 0 28.949333 12.970667 28.949333 28.928l0 784.192c0 15.957333-12.992 28.949333-28.949333 28.949333l-85.696 0c-9.728 0-17.621333 7.872-17.621333 17.642667 0 9.728 7.893333 17.6 17.621333 17.6l85.696 0c35.413333 0 64.213333-28.8 64.213333-64.213333L896.042667 106.88C896 71.466667 867.2 42.666667 831.786667 42.666667zM650.688 98.304l-0.682667 1.642667-0.341333 1.706667c-0.042667 0.256-5.034667 24.426667-28.778667 29.482667l-165.418667 0c-22.741333-4.885333-28.330667-27.626667-28.778667-29.568l-0.256-1.472-0.725333-1.792c-3.242667-7.850667-7.274667-14.613333-11.776-20.373333l248.490667 0C657.941333 83.733333 653.909333 90.453333 650.688 98.304z" /></svg>