<?xml version="1.0" standalone="no"?><!DOCTYPE svg PUBLIC "-//W3C//DTD SVG 1.1//EN" "http://www.w3.org/Graphics/SVG/1.1/DTD/svg11.dtd"><svg t="1550571066813" class="icon" style="" viewBox="0 0 1024 1024" version="1.1" xmlns="http://www.w3.org/2000/svg" p-id="1735" xmlns:xlink="http://www.w3.org/1999/xlink" width="200" height="200"><defs><style type="text/css"></style></defs><path d="M693.32992 650.3424q17.32608 0 30.0032 12.67712l120.66816 120.66816q12.67712 12.67712 12.67712 30.33088 0 17.32608-12.67712 30.0032t-30.0032 12.67712q-17.67424 0-30.33088-12.67712l-120.66816-120.66816q-12.32896-12.32896-12.32896-30.33088 0-17.67424 12.4928-30.16704t30.16704-12.4928zM330.99776 650.3424q17.67424 0 30.16704 12.4928t12.4928 30.16704-12.67712 30.33088l-120.66816 120.66816q-12.67712 12.67712-30.0032 12.67712-17.67424 0-30.16704-12.4928t-12.4928-30.16704q0-18.00192 12.32896-30.33088l120.66816-120.66816q12.67712-12.67712 30.33088-12.67712zM85.34016 469.34016l170.65984 0q17.67424 0 30.16704 12.4928t12.4928 30.16704-12.4928 30.16704-30.16704 12.4928l-170.65984 0q-17.67424 0-30.16704-12.4928t-12.4928-30.16704 12.4928-30.16704 30.16704-12.4928zM512 725.34016q17.67424 0 30.16704 12.4928t12.4928 30.16704l0 170.65984q0 17.67424-12.4928 30.16704t-30.16704 12.4928-30.16704-12.4928-12.4928-30.16704l0-170.65984q0-17.67424 12.4928-30.16704t30.16704-12.4928zM210.3296 167.34208q17.32608 0 30.0032 12.67712l120.66816 120.66816q12.67712 12.67712 12.67712 30.0032 0 17.67424-12.4928 30.16704t-30.16704 12.4928q-18.00192 0-30.33088-12.32896l-120.66816-120.66816q-12.32896-12.32896-12.32896-30.33088 0-17.67424 12.4928-30.16704t30.16704-12.4928zM768 469.34016l170.65984 0q17.67424 0 30.16704 12.4928t12.4928 30.16704-12.4928 30.16704-30.16704 12.4928l-170.65984 0q-17.67424 0-30.16704-12.4928t-12.4928-30.16704 12.4928-30.16704 30.16704-12.4928zM512 42.65984q17.67424 0 30.16704 12.4928t12.4928 30.16704l0 170.65984q0 17.67424-12.4928 30.16704t-30.16704 12.4928-30.16704-12.4928-12.4928-30.16704l0-170.65984q0-17.67424 12.4928-30.16704t30.16704-12.4928zM813.99808 167.34208q17.32608 0 30.0032 12.67712t12.67712 30.0032q0 17.67424-12.67712 30.33088l-120.66816 120.66816q-12.32896 12.32896-30.0032 12.32896-18.3296 0-30.49472-12.16512t-12.16512-30.49472q0-17.67424 12.32896-30.0032l120.66816-120.66816q12.67712-12.67712 30.33088-12.67712z" p-id="1736"></path></svg>